<mxfile host="Electron" modified="2023-08-19T00:15:10.180Z" agent="Mozilla/5.0 (Macintosh; Intel Mac OS X 10_15_7) AppleWebKit/537.36 (KHTML, like Gecko) draw.io/21.6.8 Chrome/114.0.5735.289 Electron/25.5.0 Safari/537.36" etag="P3OO6XULihQd_dyzM08d" version="21.6.8" type="device">
  <diagram name="Page-1" id="sfooioJBLwaYegBNhj1i">
    <mxGraphModel dx="970" dy="645" grid="1" gridSize="10" guides="1" tooltips="1" connect="1" arrows="1" fold="1" page="1" pageScale="1" pageWidth="850" pageHeight="1100" math="0" shadow="0">
      <root>
        <mxCell id="0" />
        <mxCell id="1" parent="0" />
        <mxCell id="yVcAya_c9F0ZWP0AlDcd-1" value="States" style="swimlane;whiteSpace=wrap;html=1;" parent="1" vertex="1">
          <mxGeometry x="110" y="30" width="190" height="170" as="geometry" />
        </mxCell>
        <mxCell id="yVcAya_c9F0ZWP0AlDcd-3" value="&lt;ul&gt;&lt;li&gt;&lt;span style=&quot;background-color: initial;&quot;&gt;movies&lt;/span&gt;&lt;/li&gt;&lt;li&gt;&lt;span style=&quot;background-color: initial;&quot;&gt;selectedMovies&lt;/span&gt;&lt;/li&gt;&lt;li&gt;&lt;span style=&quot;background-color: initial;&quot;&gt;similarMovies&lt;/span&gt;&lt;/li&gt;&lt;/ul&gt;" style="text;strokeColor=none;fillColor=none;html=1;whiteSpace=wrap;verticalAlign=middle;overflow=hidden;" parent="yVcAya_c9F0ZWP0AlDcd-1" vertex="1">
          <mxGeometry y="20" width="160" height="80" as="geometry" />
        </mxCell>
        <mxCell id="yVcAya_c9F0ZWP0AlDcd-4" value="&lt;ul&gt;&lt;li&gt;user&lt;/li&gt;&lt;li&gt;token&lt;/li&gt;&lt;/ul&gt;" style="text;strokeColor=none;fillColor=none;html=1;whiteSpace=wrap;verticalAlign=middle;overflow=hidden;" parent="yVcAya_c9F0ZWP0AlDcd-1" vertex="1">
          <mxGeometry y="90" width="160" height="80" as="geometry" />
        </mxCell>
        <mxCell id="yVcAya_c9F0ZWP0AlDcd-6" value="Actions" style="swimlane;whiteSpace=wrap;html=1;" parent="1" vertex="1">
          <mxGeometry x="490" y="30" width="190" height="170" as="geometry" />
        </mxCell>
        <mxCell id="yVcAya_c9F0ZWP0AlDcd-7" value="&lt;ul&gt;&lt;li&gt;&lt;span style=&quot;background-color: initial;&quot;&gt;fetchMovies&lt;/span&gt;&lt;/li&gt;&lt;li&gt;&lt;span style=&quot;background-color: initial;&quot;&gt;updateSelectedMovie&lt;/span&gt;&lt;/li&gt;&lt;li&gt;&lt;span style=&quot;background-color: initial;&quot;&gt;deleteSelectedMovie&lt;/span&gt;&lt;/li&gt;&lt;li&gt;&lt;span style=&quot;background-color: initial;&quot;&gt;FetchSimilarMovies&lt;/span&gt;&lt;/li&gt;&lt;/ul&gt;" style="text;strokeColor=none;fillColor=none;html=1;whiteSpace=wrap;verticalAlign=middle;overflow=hidden;" parent="yVcAya_c9F0ZWP0AlDcd-6" vertex="1">
          <mxGeometry y="20" width="170" height="80" as="geometry" />
        </mxCell>
        <mxCell id="yVcAya_c9F0ZWP0AlDcd-8" value="&lt;ul&gt;&lt;li&gt;userLogin&lt;/li&gt;&lt;li&gt;userSignup&lt;/li&gt;&lt;li&gt;userUpdate&lt;/li&gt;&lt;li&gt;userUpdateFavorites&lt;/li&gt;&lt;/ul&gt;" style="text;strokeColor=none;fillColor=none;html=1;whiteSpace=wrap;verticalAlign=middle;overflow=hidden;" parent="yVcAya_c9F0ZWP0AlDcd-6" vertex="1">
          <mxGeometry y="90" width="160" height="80" as="geometry" />
        </mxCell>
      </root>
    </mxGraphModel>
  </diagram>
</mxfile>
